<?xml version="1.0" encoding="UTF-8" standalone="no"?>
<!-- Created with Inkscape (http://www.inkscape.org/) -->
<svg
   xmlns:dc="http://purl.org/dc/elements/1.1/"
   xmlns:cc="http://web.resource.org/cc/"
   xmlns:rdf="http://www.w3.org/1999/02/22-rdf-syntax-ns#"
   xmlns:svg="http://www.w3.org/2000/svg"
   xmlns="http://www.w3.org/2000/svg"
   xmlns:xlink="http://www.w3.org/1999/xlink"
   xmlns:sodipodi="http://sodipodi.sourceforge.net/DTD/sodipodi-0.dtd"
   xmlns:inkscape="http://www.inkscape.org/namespaces/inkscape"
   width="692.86285"
   height="535.50537"
   id="svg6573"
   sodipodi:version="0.32"
   inkscape:version="0.45.1"
   version="1.0"
   sodipodi:docbase="/home/mandibula/Desktop/imágenes/wiki/coronas"
   sodipodi:docname="corona imperial cerrada reino unido.svg"
   inkscape:output_extension="org.inkscape.output.svg.inkscape">
  <defs
     id="defs6575">
    <radialGradient
       inkscape:collect="always"
       xlink:href="#linearGradient8984"
       id="radialGradient9647"
       gradientUnits="userSpaceOnUse"
       cx="-199.40411"
       cy="211.20616"
       fx="-199.40411"
       fy="211.20616"
       r="9.5459414" />
    <radialGradient
       inkscape:collect="always"
       xlink:href="#linearGradient8984"
       id="radialGradient9645"
       gradientUnits="userSpaceOnUse"
       cx="-199.40411"
       cy="211.20616"
       fx="-199.40411"
       fy="211.20616"
       r="9.5459414" />
    <radialGradient
       inkscape:collect="always"
       xlink:href="#linearGradient8984"
       id="radialGradient9643"
       gradientUnits="userSpaceOnUse"
       cx="-199.40411"
       cy="211.20616"
       fx="-199.40411"
       fy="211.20616"
       r="9.5459414" />
    <radialGradient
       inkscape:collect="always"
       xlink:href="#linearGradient8984"
       id="radialGradient9641"
       gradientUnits="userSpaceOnUse"
       cx="-199.40411"
       cy="211.20616"
       fx="-199.40411"
       fy="211.20616"
       r="9.5459414" />
    <radialGradient
       inkscape:collect="always"
       xlink:href="#linearGradient8984"
       id="radialGradient9639"
       gradientUnits="userSpaceOnUse"
       cx="-199.40411"
       cy="211.20616"
       fx="-199.40411"
       fy="211.20616"
       r="9.5459414" />
    <radialGradient
       inkscape:collect="always"
       xlink:href="#linearGradient8984"
       id="radialGradient9637"
       gradientUnits="userSpaceOnUse"
       cx="-199.40411"
       cy="211.20616"
       fx="-199.40411"
       fy="211.20616"
       r="9.5459414" />
    <radialGradient
       inkscape:collect="always"
       xlink:href="#linearGradient8984"
       id="radialGradient9635"
       gradientUnits="userSpaceOnUse"
       cx="-199.40411"
       cy="211.20616"
       fx="-199.40411"
       fy="211.20616"
       r="9.5459414" />
    <radialGradient
       inkscape:collect="always"
       xlink:href="#linearGradient8984"
       id="radialGradient9633"
       gradientUnits="userSpaceOnUse"
       cx="-199.40411"
       cy="211.20616"
       fx="-199.40411"
       fy="211.20616"
       r="9.5459414" />
    <radialGradient
       inkscape:collect="always"
       xlink:href="#linearGradient8984"
       id="radialGradient9631"
       gradientUnits="userSpaceOnUse"
       cx="-199.40411"
       cy="211.20616"
       fx="-199.40411"
       fy="211.20616"
       r="9.5459414" />
    <radialGradient
       inkscape:collect="always"
       xlink:href="#linearGradient8984"
       id="radialGradient9629"
       gradientUnits="userSpaceOnUse"
       cx="-199.40411"
       cy="211.20616"
       fx="-199.40411"
       fy="211.20616"
       r="9.5459414" />
    <radialGradient
       inkscape:collect="always"
       xlink:href="#linearGradient8984"
       id="radialGradient9627"
       gradientUnits="userSpaceOnUse"
       cx="-199.40411"
       cy="211.20616"
       fx="-199.40411"
       fy="211.20616"
       r="9.5459414" />
    <radialGradient
       inkscape:collect="always"
       xlink:href="#linearGradient8984"
       id="radialGradient9625"
       gradientUnits="userSpaceOnUse"
       cx="-199.40411"
       cy="211.20616"
       fx="-199.40411"
       fy="211.20616"
       r="9.5459414" />
    <radialGradient
       inkscape:collect="always"
       xlink:href="#linearGradient8984"
       id="radialGradient9623"
       gradientUnits="userSpaceOnUse"
       cx="-199.40411"
       cy="211.20616"
       fx="-199.40411"
       fy="211.20616"
       r="9.5459414" />
    <radialGradient
       inkscape:collect="always"
       xlink:href="#linearGradient8984"
       id="radialGradient9621"
       gradientUnits="userSpaceOnUse"
       cx="-199.40411"
       cy="211.20616"
       fx="-199.40411"
       fy="211.20616"
       r="9.5459414" />
    <radialGradient
       inkscape:collect="always"
       xlink:href="#linearGradient8984"
       id="radialGradient9619"
       gradientUnits="userSpaceOnUse"
       cx="-199.40411"
       cy="211.20616"
       fx="-199.40411"
       fy="211.20616"
       r="9.5459414" />
    <radialGradient
       inkscape:collect="always"
       xlink:href="#linearGradient8984"
       id="radialGradient9617"
       gradientUnits="userSpaceOnUse"
       cx="-199.40411"
       cy="211.20616"
       fx="-199.40411"
       fy="211.20616"
       r="9.5459414" />
    <radialGradient
       inkscape:collect="always"
       xlink:href="#linearGradient8984"
       id="radialGradient9615"
       gradientUnits="userSpaceOnUse"
       cx="-199.40411"
       cy="211.20616"
       fx="-199.40411"
       fy="211.20616"
       r="9.5459414" />
    <radialGradient
       inkscape:collect="always"
       xlink:href="#linearGradient8984"
       id="radialGradient9613"
       gradientUnits="userSpaceOnUse"
       cx="-199.40411"
       cy="211.20616"
       fx="-199.40411"
       fy="211.20616"
       r="9.5459414" />
    <radialGradient
       inkscape:collect="always"
       xlink:href="#linearGradient8984"
       id="radialGradient9611"
       gradientUnits="userSpaceOnUse"
       cx="-199.40411"
       cy="211.20616"
       fx="-199.40411"
       fy="211.20616"
       r="9.5459414" />
    <radialGradient
       inkscape:collect="always"
       xlink:href="#linearGradient8984"
       id="radialGradient9609"
       gradientUnits="userSpaceOnUse"
       cx="-199.40411"
       cy="211.20616"
       fx="-199.40411"
       fy="211.20616"
       r="9.5459414" />
    <radialGradient
       inkscape:collect="always"
       xlink:href="#linearGradient8984"
       id="radialGradient9607"
       gradientUnits="userSpaceOnUse"
       cx="-199.40411"
       cy="211.20616"
       fx="-199.40411"
       fy="211.20616"
       r="9.5459414" />
    <radialGradient
       inkscape:collect="always"
       xlink:href="#linearGradient8984"
       id="radialGradient9605"
       gradientUnits="userSpaceOnUse"
       cx="-199.40411"
       cy="211.20616"
       fx="-199.40411"
       fy="211.20616"
       r="9.5459414" />
    <radialGradient
       inkscape:collect="always"
       xlink:href="#linearGradient8984"
       id="radialGradient9603"
       gradientUnits="userSpaceOnUse"
       cx="-199.40411"
       cy="211.20616"
       fx="-199.40411"
       fy="211.20616"
       r="9.5459414" />
    <radialGradient
       inkscape:collect="always"
       xlink:href="#linearGradient8984"
       id="radialGradient9601"
       gradientUnits="userSpaceOnUse"
       cx="-199.40411"
       cy="211.20616"
       fx="-199.40411"
       fy="211.20616"
       r="9.5459414" />
    <radialGradient
       inkscape:collect="always"
       xlink:href="#linearGradient8984"
       id="radialGradient9599"
       gradientUnits="userSpaceOnUse"
       cx="-199.40411"
       cy="211.20616"
       fx="-199.40411"
       fy="211.20616"
       r="9.5459414" />
    <linearGradient
       id="linearGradient8984">
      <stop
         style="stop-color:#fdfdfd;stop-opacity:1;"
         offset="0"
         id="stop8986" />
      <stop
         id="stop8992"
         offset="0.5"
         style="stop-color:#f0f0f0;stop-opacity:1;" />
      <stop
         style="stop-color:#b8b8b8;stop-opacity:1;"
         offset="1"
         id="stop8988" />
    </linearGradient>
    <radialGradient
       inkscape:collect="always"
       xlink:href="#linearGradient8984"
       id="radialGradient9597"
       gradientUnits="userSpaceOnUse"
       cx="-199.40411"
       cy="211.20616"
       fx="-199.40411"
       fy="211.20616"
       r="9.5459414" />
  </defs>
  <sodipodi:namedview
     id="base"
     pagecolor="#ffffff"
     bordercolor="#666666"
     borderopacity="1.0"
     inkscape:pageopacity="0.0"
     inkscape:pageshadow="2"
     inkscape:zoom="0.35"
     inkscape:cx="350"
     inkscape:cy="520"
     inkscape:document-units="px"
     inkscape:current-layer="layer1"
     inkscape:window-width="876"
     inkscape:window-height="622"
     inkscape:window-x="0"
     inkscape:window-y="49" />
  <metadata
     id="metadata6578">
    <rdf:RDF>
      <cc:Work
         rdf:about="">
        <dc:format>image/svg+xml</dc:format>
        <dc:type
           rdf:resource="http://purl.org/dc/dcmitype/StillImage" />
      </cc:Work>
    </rdf:RDF>
  </metadata>
  <g
     inkscape:label="Capa 1"
     inkscape:groupmode="layer"
     id="layer1"
     transform="translate(-19.282945,-21.752375)">
    <g
       id="g9192"
       transform="matrix(4.1259031,0,0,4.1259031,4182.9943,-1890.8971)">
      <g
         id="g9536"
         transform="translate(-722,283.5)">
        <path
           transform="matrix(0.6404074,0,0,0.6404074,-9.7633208,121.83172)"
           d="M -189.85817 215.14775 A 9.5459414 9.5459414 0 1 1  -208.95006,215.14775 A 9.5459414 9.5459414 0 1 1  -189.85817 215.14775 z"
           sodipodi:ry="9.5459414"
           sodipodi:rx="9.5459414"
           sodipodi:cy="215.14775"
           sodipodi:cx="-199.40411"
           id="path9010"
           style="fill:url(#radialGradient9597);fill-opacity:1;stroke:none;stroke-width:1.49947155;stroke-miterlimit:4;stroke-dasharray:none;stroke-dashoffset:0;stroke-opacity:1"
           sodipodi:type="arc" />
        <path
           sodipodi:type="arc"
           style="fill:url(#radialGradient9599);fill-opacity:1;stroke:none;stroke-width:1.49947155;stroke-miterlimit:4;stroke-dasharray:none;stroke-dashoffset:0;stroke-opacity:1"
           id="path9085"
           sodipodi:cx="-199.40411"
           sodipodi:cy="215.14775"
           sodipodi:rx="9.5459414"
           sodipodi:ry="9.5459414"
           d="M -189.85817 215.14775 A 9.5459414 9.5459414 0 1 1  -208.95006,215.14775 A 9.5459414 9.5459414 0 1 1  -189.85817 215.14775 z"
           transform="matrix(-0.6404074,0,0,0.6404074,-396.63396,121.83172)" />
        <path
           style="fill:#ad252c;fill-opacity:1;fill-rule:evenodd;stroke:none;stroke-width:1px;stroke-linecap:butt;stroke-linejoin:miter;stroke-opacity:1"
           d="M -260.17341,258.81423 C -255.88966,255.9584 -222.58494,243.54355 -203.18245,243.54355 C -183.77997,243.54355 -147.01117,258.10027 -147.01117,258.10027 C -147.01117,258.10027 -152.72283,270.23755 -153.43678,275.23525 C -154.15074,280.23295 -147.36815,292.37023 -155.22168,294.15512 C -163.07521,295.94001 -252.31988,293.79814 -255.53268,290.94231 C -258.74549,288.08648 -252.67685,277.7341 -254.81873,271.30848 C -256.9606,264.88287 -259.81643,259.17121 -260.17341,258.81423 z "
           id="path9141" />
        <path
           style="fill:#f8c523;fill-opacity:1;fill-rule:evenodd;stroke:#c99009;stroke-width:1.07093596;stroke-linecap:butt;stroke-linejoin:miter;stroke-miterlimit:4;stroke-dasharray:none;stroke-opacity:1"
           d="M -250.25193,219.06488 C -253.06096,219.24925 -255.89415,219.99455 -258.574,221.0952 C -263.93371,223.29651 -268.81417,226.94385 -272.11688,231.02367 C -273.81328,233.11923 -274.76833,235.17542 -274.88346,237.2708 C -274.9986,239.36618 -274.26495,241.26711 -273.23244,243.00477 C -271.16739,246.48008 -267.87798,249.80929 -264.79881,254.94124 C -258.34391,265.69941 -255.12631,269.47833 -258.28395,288.07332 L -254.00021,288.80959 C -250.73223,269.56485 -254.65421,263.34835 -261.05054,252.68781 C -264.39699,247.11041 -267.89017,243.47853 -269.48416,240.79596 C -270.28116,239.45468 -270.58499,238.46631 -270.53278,237.51622 C -270.48058,236.56613 -270.0635,235.42066 -268.72558,233.76794 C -265.95965,230.35121 -261.55867,227.03747 -256.92297,225.13352 C -252.28728,223.22958 -247.52259,222.76108 -243.80401,224.39725 C -239.45844,226.3093 -236.93153,227.9057 -233.74167,229.23878 C -230.55181,230.57186 -226.85392,231.52445 -220.64502,232.07229 L -220.6227,232.07229 L -220.60039,232.07229 C -209.04317,232.94579 -197.41153,233.23744 -185.75035,232.07229 C -179.54145,231.52445 -175.88818,230.57186 -172.69832,229.23878 C -169.50846,227.9057 -166.95924,226.3093 -162.61367,224.39725 C -158.89509,222.76108 -154.1304,223.22958 -149.4947,225.13352 C -144.85901,227.03747 -140.45802,230.35121 -137.6921,233.76794 C -136.35418,235.42066 -135.9371,236.56613 -135.88489,237.51622 C -135.83269,238.46631 -136.13652,239.45468 -136.93352,240.79596 C -138.52751,243.47853 -142.02069,247.11041 -145.36714,252.68781 C -148.46434,257.8498 -151.57072,261.092 -153.62227,265.78447 C -155.67382,270.47694 -156.33843,276.33215 -154.69321,286.0207 L -154.60396,286.60079 L -154.24698,287.04701 C -146.13087,296.70776 -151.76189,273.42737 -149.65088,267.52474 C -147.97844,263.69938 -144.94728,260.48861 -141.61886,254.94124 C -138.53969,249.80929 -135.25028,246.48008 -133.18524,243.00477 C -132.15272,241.26711 -131.41909,239.36618 -131.53422,237.2708 C -131.64935,235.17542 -132.6044,233.11923 -134.3008,231.02367 C -137.60351,226.94385 -142.48397,223.29651 -147.84368,221.0952 C -153.20338,218.89389 -159.14806,218.11296 -164.35394,220.40355 C -168.93284,222.41827 -171.58212,224.057 -174.37166,225.22277 C -177.16119,226.38854 -180.24589,227.19852 -186.17426,227.72162 L -186.19657,227.72162 C -197.50189,228.8512 -208.87867,228.58393 -220.28804,227.72162 C -226.21641,227.19852 -229.25649,226.38854 -232.04602,225.22277 C -234.83555,224.057 -237.48483,222.41827 -242.06374,220.40355 C -244.66668,219.25826 -247.4429,218.88052 -250.25193,219.06488 z "
           id="path8959"
           sodipodi:nodetypes="csssssccsssssssccccssssssssccccssssssscccssc" />
        <path
           style="opacity:1;fill:#f8c523;fill-opacity:1;stroke:#c99009;stroke-width:1.07093596;stroke-miterlimit:4;stroke-dasharray:none;stroke-dashoffset:0;stroke-opacity:1"
           d="M -203.16837,200.41275 C -204.57581,200.48534 -206.09114,200.97053 -207.34056,202.06377 C -210.00105,204.3917 -212.27456,216.51085 -212.58369,218.21706 L -212.94067,218.21706 L -212.94067,218.86408 C -213.27804,219.176 -213.40805,220.56552 -212.94067,222.0992 L -212.94067,286.6231 L -193.50764,286.6231 L -193.50764,218.21706 L -194.24391,218.21706 C -194.8832,213.52977 -198.16486,202.99372 -199.13005,201.7068 C -199.73246,200.90359 -201.35881,200.31941 -203.16837,200.41275 z "
           id="rect8972" />
        <path
           transform="matrix(0.6404074,0,0,0.6404074,-75.897896,74.683965)"
           d="M -189.85817 215.14775 A 9.5459414 9.5459414 0 1 1  -208.95006,215.14775 A 9.5459414 9.5459414 0 1 1  -189.85817 215.14775 z"
           sodipodi:ry="9.5459414"
           sodipodi:rx="9.5459414"
           sodipodi:cy="215.14775"
           sodipodi:cx="-199.40411"
           id="path9068"
           style="opacity:1;fill:url(#radialGradient9601);fill-opacity:1;stroke:none;stroke-width:1.49947155;stroke-miterlimit:4;stroke-dasharray:none;stroke-dashoffset:0;stroke-opacity:1"
           sodipodi:type="arc" />
        <path
           sodipodi:type="arc"
           style="opacity:1;fill:url(#radialGradient9603);fill-opacity:1;stroke:none;stroke-width:1.49947155;stroke-miterlimit:4;stroke-dasharray:none;stroke-dashoffset:0;stroke-opacity:1"
           id="path9064"
           sodipodi:cx="-199.40411"
           sodipodi:cy="215.14775"
           sodipodi:rx="9.5459414"
           sodipodi:ry="9.5459414"
           d="M -189.85817 215.14775 A 9.5459414 9.5459414 0 1 1  -208.95006,215.14775 A 9.5459414 9.5459414 0 1 1  -189.85817 215.14775 z"
           transform="matrix(0.6404074,0,0,0.6404074,-75.897896,75.441231)" />
        <path
           transform="matrix(0.6404074,0,0,0.6404074,-75.897896,80.489673)"
           d="M -189.85817 215.14775 A 9.5459414 9.5459414 0 1 1  -208.95006,215.14775 A 9.5459414 9.5459414 0 1 1  -189.85817 215.14775 z"
           sodipodi:ry="9.5459414"
           sodipodi:rx="9.5459414"
           sodipodi:cy="215.14775"
           sodipodi:cx="-199.40411"
           id="path9060"
           style="opacity:1;fill:url(#radialGradient9605);fill-opacity:1;stroke:none;stroke-width:1.49947155;stroke-miterlimit:4;stroke-dasharray:none;stroke-dashoffset:0;stroke-opacity:1"
           sodipodi:type="arc" />
        <path
           sodipodi:type="arc"
           style="opacity:1;fill:url(#radialGradient9607);fill-opacity:1;stroke:none;stroke-width:1.49947155;stroke-miterlimit:4;stroke-dasharray:none;stroke-dashoffset:0;stroke-opacity:1"
           id="path9038"
           sodipodi:cx="-199.40411"
           sodipodi:cy="215.14775"
           sodipodi:rx="9.5459414"
           sodipodi:ry="9.5459414"
           d="M -189.85817 215.14775 A 9.5459414 9.5459414 0 1 1  -208.95006,215.14775 A 9.5459414 9.5459414 0 1 1  -189.85817 215.14775 z"
           transform="matrix(0.6404074,0,0,0.6404074,-75.897896,88.56718)" />
        <path
           sodipodi:type="arc"
           style="opacity:1;fill:url(#radialGradient9609);fill-opacity:1;stroke:none;stroke-width:1.49947155;stroke-miterlimit:4;stroke-dasharray:none;stroke-dashoffset:0;stroke-opacity:1"
           id="path8998"
           sodipodi:cx="-199.40411"
           sodipodi:cy="215.14775"
           sodipodi:rx="9.5459414"
           sodipodi:ry="9.5459414"
           d="M -189.85817 215.14775 A 9.5459414 9.5459414 0 1 1  -208.95006,215.14775 A 9.5459414 9.5459414 0 1 1  -189.85817 215.14775 z"
           transform="matrix(0.6404074,0,0,0.6404074,-75.897896,100.17859)" />
        <path
           sodipodi:type="arc"
           style="opacity:1;fill:url(#radialGradient9611);fill-opacity:1;stroke:none;stroke-width:1.49947155;stroke-miterlimit:4;stroke-dasharray:none;stroke-dashoffset:0;stroke-opacity:1"
           id="path8974"
           sodipodi:cx="-199.40411"
           sodipodi:cy="215.14775"
           sodipodi:rx="9.5459414"
           sodipodi:ry="9.5459414"
           d="M -189.85817 215.14775 A 9.5459414 9.5459414 0 1 1  -208.95006,215.14775 A 9.5459414 9.5459414 0 1 1  -189.85817 215.14775 z"
           transform="matrix(0.6404074,0,0,0.6404074,-75.897895,111.03274)" />
        <path
           style="fill:#f8c523;fill-opacity:1;fill-rule:evenodd;stroke:#c99009;stroke-width:1.07093596;stroke-linecap:butt;stroke-linejoin:miter;stroke-miterlimit:4;stroke-dasharray:none;stroke-opacity:1"
           d="M -233.40001,255.96755 C -233.40001,255.96755 -237.32677,262.03619 -238.04073,266.67691 C -238.03145,266.89962 -238.00756,267.08621 -237.99611,267.30163 C -238.79189,266.97953 -239.73993,266.85127 -240.89656,267.03389 C -244.44025,267.59342 -247.67915,271.67462 -243.75239,277.0293 C -243.39541,277.38627 -244.10937,273.45951 -239.46864,273.10253 C -238.64893,273.03947 -237.96378,273.06151 -237.37139,273.14715 C -236.95875,280.35689 -235.26926,281.35776 -241.3874,285.59678 L -255.71117,285.59678 C -257.67395,279.17252 -259.97973,276.27072 -257.60762,276.27072 C -255.0834,276.27072 -251.80672,279.30503 -251.80672,279.30503 C -251.80673,279.30503 -251.05734,273.49187 -256.3582,270.71524 C -261.65906,267.93858 -262.40452,268.19407 -262.40452,268.19407 C -262.40452,268.19407 -268.4771,260.37685 -270.7489,259.87201 C -273.0207,259.36716 -273.02464,260.11743 -273.02464,260.11743 C -273.02463,260.11743 -268.96443,268.20458 -264.92569,274.26271 L -258.38851,285.59678 L -258.38851,304.15967 L -151.29491,304.15967 L -151.29491,285.59678 C -150.17172,283.90021 -145.50258,275.80024 -144.49001,274.26271 C -140.45126,268.20458 -136.41336,260.11743 -136.41336,260.11743 C -136.41336,260.11743 -136.4173,259.36716 -138.6891,259.87201 C -140.9609,260.37685 -147.01117,268.19407 -147.01117,268.19407 C -147.01117,268.19407 -147.77894,267.93858 -153.07981,270.71524 C -158.38067,273.49187 -157.60897,279.30503 -157.60897,279.30503 C -157.60897,279.30503 -154.33229,276.27072 -151.80807,276.27072 C -149.43596,276.27072 -151.76405,279.17252 -153.72683,285.59678 L -165.08321,285.59678 C -171.20136,281.35776 -169.51187,280.35689 -169.09922,273.14715 C -168.50684,273.06151 -167.82168,273.03947 -167.00197,273.10253 C -162.36125,273.45951 -163.07521,277.38627 -162.71823,277.0293 C -158.79146,271.67462 -162.03037,267.59342 -165.57406,267.03389 C -166.73068,266.85127 -167.67873,266.97953 -168.47451,267.30163 C -168.46306,267.08621 -168.43917,266.89962 -168.42989,266.67691 C -169.14385,262.03619 -173.07061,255.96755 -173.07061,255.96755 C -173.07061,255.96755 -179.13925,260.60828 -179.13925,267.74785 C -179.13054,267.79888 -179.12558,267.83123 -179.11694,267.88172 C -180.07341,267.15021 -181.3559,266.76387 -183.06601,267.03389 C -186.60971,267.59342 -189.8486,271.67462 -185.92184,277.0293 C -185.56486,277.38627 -186.27881,273.45951 -181.6381,273.10253 C -180.07285,272.98213 -178.95265,273.18023 -178.15756,273.50413 C -177.22746,278.12523 -176.63137,281.30065 -180.74565,285.59678 L -195.69413,285.59678 L -203.86002,275.06591 L -211.53506,285.59678 L -225.72496,285.59678 C -229.83924,281.30065 -229.24316,278.12523 -228.31306,273.50413 C -227.51797,273.18023 -226.39776,272.98213 -224.83252,273.10253 C -220.1918,273.45951 -220.90575,277.38627 -220.54877,277.0293 C -216.62202,271.67462 -219.86091,267.59342 -223.4046,267.03389 C -225.11472,266.76387 -226.39721,267.15021 -227.35368,267.88172 C -227.34503,267.83123 -227.34007,267.79888 -227.33137,267.74785 C -227.33137,260.60828 -233.40001,255.96755 -233.40001,255.96755 z "
           id="path8868"
           sodipodi:nodetypes="cccscscccscscsccccccccscscscccscscccccscscccccccscsccc" />
        <path
           transform="matrix(0.6404074,0,0,0.6404074,-75.897895,121.12962)"
           d="M -189.85817 215.14775 A 9.5459414 9.5459414 0 1 1  -208.95006,215.14775 A 9.5459414 9.5459414 0 1 1  -189.85817 215.14775 z"
           sodipodi:ry="9.5459414"
           sodipodi:rx="9.5459414"
           sodipodi:cy="215.14775"
           sodipodi:cx="-199.40411"
           id="path8994"
           style="opacity:1;fill:url(#radialGradient9613);fill-opacity:1;stroke:none;stroke-width:1.49947155;stroke-miterlimit:4;stroke-dasharray:none;stroke-dashoffset:0;stroke-opacity:1"
           sodipodi:type="arc" />
        <path
           style="fill:#f8c523;fill-opacity:1;fill-rule:evenodd;stroke:#c99009;stroke-width:1.07093596;stroke-linecap:butt;stroke-linejoin:miter;stroke-miterlimit:4;stroke-dasharray:none;stroke-opacity:1"
           d="M -212.43253,263.94842 L -195.77268,263.94842 L -204.35503,275.05498 L -212.43253,263.94842 z "
           id="path8877"
           sodipodi:nodetypes="cccc" />
        <path
           sodipodi:nodetypes="cccc"
           id="path8879"
           d="M -192.99604,266.72506 L -192.99604,283.38491 L -204.1026,274.80256 L -192.99604,266.72506 z "
           style="fill:#f8c523;fill-opacity:1;fill-rule:evenodd;stroke:#c99009;stroke-width:1.07093596;stroke-linecap:butt;stroke-linejoin:miter;stroke-miterlimit:4;stroke-dasharray:none;stroke-opacity:1"
           inkscape:transform-center-x="-6.0887504" />
        <path
           style="fill:#f8c523;fill-opacity:1;fill-rule:evenodd;stroke:#c99009;stroke-width:1.07093596;stroke-linecap:butt;stroke-linejoin:miter;stroke-miterlimit:4;stroke-dasharray:none;stroke-opacity:1"
           d="M -215.20917,266.72506 L -215.20917,283.38491 L -204.10261,274.80256 L -215.20917,266.72506 z "
           id="path8881"
           sodipodi:nodetypes="cccc" />
        <path
           sodipodi:type="arc"
           style="opacity:1;fill:#d6d6d6;fill-opacity:1;stroke:none;stroke-width:3;stroke-miterlimit:4;stroke-dasharray:none;stroke-dashoffset:0;stroke-opacity:1"
           id="path8891"
           sodipodi:cx="-199.75766"
           sodipodi:cy="260.04904"
           sodipodi:rx="2.4748738"
           sodipodi:ry="2.4748738"
           d="M -197.28279 260.04904 A 2.4748738 2.4748738 0 1 1  -202.23253,260.04904 A 2.4748738 2.4748738 0 1 1  -197.28279 260.04904 z"
           transform="matrix(1.3259207,0,0,1.3259207,60.760229,-69.287901)" />
        <rect
           style="opacity:1;fill:#ed1a23;fill-opacity:1;stroke:none;stroke-width:3;stroke-miterlimit:4;stroke-dasharray:none;stroke-dashoffset:0;stroke-opacity:1"
           id="rect8895"
           width="4.6407228"
           height="7.1395736"
           x="-256.60364"
           y="295.22604" />
        <rect
           y="295.22604"
           x="-156.29262"
           height="7.1395736"
           width="4.6407228"
           id="rect8897"
           style="opacity:1;fill:#ed1a23;fill-opacity:1;stroke:none;stroke-width:3;stroke-miterlimit:4;stroke-dasharray:none;stroke-dashoffset:0;stroke-opacity:1" />
        <rect
           style="opacity:1;fill:#139354;fill-opacity:1;stroke:none;stroke-width:3;stroke-miterlimit:4;stroke-dasharray:none;stroke-dashoffset:0;stroke-opacity:1"
           id="rect8901"
           width="6.7825947"
           height="7.1395736"
           x="-179.49623"
           y="295.22604" />
        <rect
           y="295.22604"
           x="-234.82793"
           height="7.1395736"
           width="6.7825947"
           id="rect8903"
           style="opacity:1;fill:#139354;fill-opacity:1;stroke:none;stroke-width:3;stroke-miterlimit:4;stroke-dasharray:none;stroke-dashoffset:0;stroke-opacity:1" />
        <rect
           style="opacity:1;fill:#0ca3de;fill-opacity:1;stroke:none;stroke-width:3;stroke-miterlimit:4;stroke-dasharray:none;stroke-dashoffset:0;stroke-opacity:1"
           id="rect8905"
           width="11.066339"
           height="7.1395736"
           x="-209.12546"
           y="294.86908" />
        <rect
           style="opacity:1;fill:#f9f9f9;fill-opacity:1;stroke:none;stroke-width:3;stroke-miterlimit:4;stroke-dasharray:none;stroke-dashoffset:0;stroke-opacity:1"
           id="rect8907"
           width="112.80526"
           height="6.4256163"
           x="-260.5304"
           y="303.43655" />
        <rect
           y="305.22147"
           x="-258.74548"
           height="3.2128081"
           width="2.4988506"
           id="rect8909"
           style="opacity:1;fill:#1a1a1a;fill-opacity:1;stroke:none;stroke-width:3;stroke-miterlimit:4;stroke-dasharray:none;stroke-dashoffset:0;stroke-opacity:1" />
        <rect
           style="opacity:1;fill:#1a1a1a;fill-opacity:1;stroke:none;stroke-width:3;stroke-miterlimit:4;stroke-dasharray:none;stroke-dashoffset:0;stroke-opacity:1"
           id="rect8911"
           width="2.4988506"
           height="3.2128081"
           x="-249.99951"
           y="305.22147" />
        <rect
           style="opacity:1;fill:#1a1a1a;fill-opacity:1;stroke:none;stroke-width:3;stroke-miterlimit:4;stroke-dasharray:none;stroke-dashoffset:0;stroke-opacity:1"
           id="rect8915"
           width="2.4988506"
           height="3.2128081"
           x="-241.43202"
           y="305.22147" />
        <rect
           y="305.22147"
           x="-232.68605"
           height="3.2128081"
           width="2.4988506"
           id="rect8917"
           style="opacity:1;fill:#1a1a1a;fill-opacity:1;stroke:none;stroke-width:3;stroke-miterlimit:4;stroke-dasharray:none;stroke-dashoffset:0;stroke-opacity:1" />
        <rect
           style="opacity:1;fill:#1a1a1a;fill-opacity:1;stroke:none;stroke-width:3;stroke-miterlimit:4;stroke-dasharray:none;stroke-dashoffset:0;stroke-opacity:1"
           id="rect8919"
           width="2.4988506"
           height="3.2128081"
           x="-224.11856"
           y="305.22147" />
        <rect
           y="305.22147"
           x="-215.37259"
           height="3.2128081"
           width="2.4988506"
           id="rect8921"
           style="opacity:1;fill:#1a1a1a;fill-opacity:1;stroke:none;stroke-width:3;stroke-miterlimit:4;stroke-dasharray:none;stroke-dashoffset:0;stroke-opacity:1" />
        <rect
           y="305.22147"
           x="-206.8051"
           height="3.2128081"
           width="2.4988506"
           id="rect8923"
           style="opacity:1;fill:#1a1a1a;fill-opacity:1;stroke:none;stroke-width:3;stroke-miterlimit:4;stroke-dasharray:none;stroke-dashoffset:0;stroke-opacity:1" />
        <rect
           style="opacity:1;fill:#1a1a1a;fill-opacity:1;stroke:none;stroke-width:3;stroke-miterlimit:4;stroke-dasharray:none;stroke-dashoffset:0;stroke-opacity:1"
           id="rect8925"
           width="2.4988506"
           height="3.2128081"
           x="-198.05911"
           y="305.22147" />
        <rect
           style="opacity:1;fill:#1a1a1a;fill-opacity:1;stroke:none;stroke-width:3;stroke-miterlimit:4;stroke-dasharray:none;stroke-dashoffset:0;stroke-opacity:1"
           id="rect8927"
           width="2.4988506"
           height="3.2128081"
           x="-188.77768"
           y="305.22147" />
        <rect
           y="305.22147"
           x="-180.03169"
           height="3.2128081"
           width="2.4988506"
           id="rect8929"
           style="opacity:1;fill:#1a1a1a;fill-opacity:1;stroke:none;stroke-width:3;stroke-miterlimit:4;stroke-dasharray:none;stroke-dashoffset:0;stroke-opacity:1" />
        <rect
           y="305.22147"
           x="-171.4642"
           height="3.2128081"
           width="2.4988506"
           id="rect8931"
           style="opacity:1;fill:#1a1a1a;fill-opacity:1;stroke:none;stroke-width:3;stroke-miterlimit:4;stroke-dasharray:none;stroke-dashoffset:0;stroke-opacity:1" />
        <rect
           style="opacity:1;fill:#1a1a1a;fill-opacity:1;stroke:none;stroke-width:3;stroke-miterlimit:4;stroke-dasharray:none;stroke-dashoffset:0;stroke-opacity:1"
           id="rect8933"
           width="2.4988506"
           height="3.2128081"
           x="-162.71823"
           y="305.22147" />
        <rect
           y="305.22147"
           x="-154.15074"
           height="3.2128081"
           width="2.4988506"
           id="rect8935"
           style="opacity:1;fill:#1a1a1a;fill-opacity:1;stroke:none;stroke-width:3;stroke-miterlimit:4;stroke-dasharray:none;stroke-dashoffset:0;stroke-opacity:1" />
        <path
           transform="matrix(0.6404074,0,0,0.6404074,2.3529373,100.12343)"
           d="M -189.85817 215.14775 A 9.5459414 9.5459414 0 1 1  -208.95006,215.14775 A 9.5459414 9.5459414 0 1 1  -189.85817 215.14775 z"
           sodipodi:ry="9.5459414"
           sodipodi:rx="9.5459414"
           sodipodi:cy="215.14775"
           sodipodi:cx="-199.40411"
           id="path9002"
           style="fill:url(#radialGradient9615);fill-opacity:1;stroke:none;stroke-width:1.49947155;stroke-miterlimit:4;stroke-dasharray:none;stroke-dashoffset:0;stroke-opacity:1"
           sodipodi:type="arc" />
        <path
           sodipodi:type="arc"
           style="fill:url(#radialGradient9617);fill-opacity:1;stroke:none;stroke-width:1.49947155;stroke-miterlimit:4;stroke-dasharray:none;stroke-dashoffset:0;stroke-opacity:1"
           id="path9006"
           sodipodi:cx="-199.40411"
           sodipodi:cy="215.14775"
           sodipodi:rx="9.5459414"
           sodipodi:ry="9.5459414"
           d="M -189.85817 215.14775 A 9.5459414 9.5459414 0 1 1  -208.95006,215.14775 A 9.5459414 9.5459414 0 1 1  -189.85817 215.14775 z"
           transform="matrix(0.6404074,0,0,0.6404074,-2.1906594,111.23)" />
        <path
           sodipodi:type="arc"
           style="fill:url(#radialGradient9619);fill-opacity:1;stroke:none;stroke-width:1.49947155;stroke-miterlimit:4;stroke-dasharray:none;stroke-dashoffset:0;stroke-opacity:1"
           id="path9014"
           sodipodi:cx="-199.40411"
           sodipodi:cy="215.14775"
           sodipodi:rx="9.5459414"
           sodipodi:ry="9.5459414"
           d="M -189.85817 215.14775 A 9.5459414 9.5459414 0 1 1  -208.95006,215.14775 A 9.5459414 9.5459414 0 1 1  -189.85817 215.14775 z"
           transform="matrix(0.6404074,0,0,0.6404074,-1.9382377,88.512014)" />
        <path
           transform="matrix(0.6404074,0,0,0.6404074,-11.025431,80.686931)"
           d="M -189.85817 215.14775 A 9.5459414 9.5459414 0 1 1  -208.95006,215.14775 A 9.5459414 9.5459414 0 1 1  -189.85817 215.14775 z"
           sodipodi:ry="9.5459414"
           sodipodi:rx="9.5459414"
           sodipodi:cy="215.14775"
           sodipodi:cx="-199.40411"
           id="path9018"
           style="fill:url(#radialGradient9621);fill-opacity:1;stroke:none;stroke-width:1.49947155;stroke-miterlimit:4;stroke-dasharray:none;stroke-dashoffset:0;stroke-opacity:1"
           sodipodi:type="arc" />
        <path
           sodipodi:type="arc"
           style="fill:url(#radialGradient9623);fill-opacity:1;stroke:none;stroke-width:1.49947155;stroke-miterlimit:4;stroke-dasharray:none;stroke-dashoffset:0;stroke-opacity:1"
           id="path9022"
           sodipodi:cx="-199.40411"
           sodipodi:cy="215.14775"
           sodipodi:rx="9.5459414"
           sodipodi:ry="9.5459414"
           d="M -189.85817 215.14775 A 9.5459414 9.5459414 0 1 1  -208.95006,215.14775 A 9.5459414 9.5459414 0 1 1  -189.85817 215.14775 z"
           transform="matrix(0.6404074,0,0,0.6404074,-21.879579,75.63849)" />
        <path
           transform="matrix(0.6404074,0,0,0.6404074,-33.995837,75.133645)"
           d="M -189.85817 215.14775 A 9.5459414 9.5459414 0 1 1  -208.95006,215.14775 A 9.5459414 9.5459414 0 1 1  -189.85817 215.14775 z"
           sodipodi:ry="9.5459414"
           sodipodi:rx="9.5459414"
           sodipodi:cy="215.14775"
           sodipodi:cx="-199.40411"
           id="path9026"
           style="fill:url(#radialGradient9625);fill-opacity:1;stroke:none;stroke-width:1.49947155;stroke-miterlimit:4;stroke-dasharray:none;stroke-dashoffset:0;stroke-opacity:1"
           sodipodi:type="arc" />
        <path
           sodipodi:type="arc"
           style="fill:url(#radialGradient9627);fill-opacity:1;stroke:none;stroke-width:1.49947155;stroke-miterlimit:4;stroke-dasharray:none;stroke-dashoffset:0;stroke-opacity:1"
           id="path9030"
           sodipodi:cx="-199.40411"
           sodipodi:cy="215.14775"
           sodipodi:rx="9.5459414"
           sodipodi:ry="9.5459414"
           d="M -189.85817 215.14775 A 9.5459414 9.5459414 0 1 1  -208.95006,215.14775 A 9.5459414 9.5459414 0 1 1  -189.85817 215.14775 z"
           transform="matrix(0.6404074,0,0,0.6404074,-45.354829,79.42482)" />
        <path
           transform="matrix(0.6404074,0,0,0.6404074,-56.966243,83.211151)"
           d="M -189.85817 215.14775 A 9.5459414 9.5459414 0 1 1  -208.95006,215.14775 A 9.5459414 9.5459414 0 1 1  -189.85817 215.14775 z"
           sodipodi:ry="9.5459414"
           sodipodi:rx="9.5459414"
           sodipodi:cy="215.14775"
           sodipodi:cx="-199.40411"
           id="path9034"
           style="fill:url(#radialGradient9629);fill-opacity:1;stroke:none;stroke-width:1.49947155;stroke-miterlimit:4;stroke-dasharray:none;stroke-dashoffset:0;stroke-opacity:1"
           sodipodi:type="arc" />
        <path
           sodipodi:type="arc"
           style="fill:url(#radialGradient9631);fill-opacity:1;stroke:none;stroke-width:1.49947155;stroke-miterlimit:4;stroke-dasharray:none;stroke-dashoffset:0;stroke-opacity:1"
           id="path9087"
           sodipodi:cx="-199.40411"
           sodipodi:cy="215.14775"
           sodipodi:rx="9.5459414"
           sodipodi:ry="9.5459414"
           d="M -189.85817 215.14775 A 9.5459414 9.5459414 0 1 1  -208.95006,215.14775 A 9.5459414 9.5459414 0 1 1  -189.85817 215.14775 z"
           transform="matrix(-0.6404074,0,0,0.6404074,-408.75021,100.12343)" />
        <path
           transform="matrix(-0.6404074,0,0,0.6404074,-404.20662,111.23)"
           d="M -189.85817 215.14775 A 9.5459414 9.5459414 0 1 1  -208.95006,215.14775 A 9.5459414 9.5459414 0 1 1  -189.85817 215.14775 z"
           sodipodi:ry="9.5459414"
           sodipodi:rx="9.5459414"
           sodipodi:cy="215.14775"
           sodipodi:cx="-199.40411"
           id="path9089"
           style="fill:url(#radialGradient9633);fill-opacity:1;stroke:none;stroke-width:1.49947155;stroke-miterlimit:4;stroke-dasharray:none;stroke-dashoffset:0;stroke-opacity:1"
           sodipodi:type="arc" />
        <path
           transform="matrix(-0.6404074,0,0,0.6404074,-404.45905,88.512014)"
           d="M -189.85817 215.14775 A 9.5459414 9.5459414 0 1 1  -208.95006,215.14775 A 9.5459414 9.5459414 0 1 1  -189.85817 215.14775 z"
           sodipodi:ry="9.5459414"
           sodipodi:rx="9.5459414"
           sodipodi:cy="215.14775"
           sodipodi:cx="-199.40411"
           id="path9091"
           style="fill:url(#radialGradient9635);fill-opacity:1;stroke:none;stroke-width:1.49947155;stroke-miterlimit:4;stroke-dasharray:none;stroke-dashoffset:0;stroke-opacity:1"
           sodipodi:type="arc" />
        <path
           sodipodi:type="arc"
           style="fill:url(#radialGradient9637);fill-opacity:1;stroke:none;stroke-width:1.49947155;stroke-miterlimit:4;stroke-dasharray:none;stroke-dashoffset:0;stroke-opacity:1"
           id="path9093"
           sodipodi:cx="-199.40411"
           sodipodi:cy="215.14775"
           sodipodi:rx="9.5459414"
           sodipodi:ry="9.5459414"
           d="M -189.85817 215.14775 A 9.5459414 9.5459414 0 1 1  -208.95006,215.14775 A 9.5459414 9.5459414 0 1 1  -189.85817 215.14775 z"
           transform="matrix(-0.6404074,0,0,0.6404074,-395.37185,80.686931)" />
        <path
           transform="matrix(-0.6404074,0,0,0.6404074,-384.5177,75.63849)"
           d="M -189.85817 215.14775 A 9.5459414 9.5459414 0 1 1  -208.95006,215.14775 A 9.5459414 9.5459414 0 1 1  -189.85817 215.14775 z"
           sodipodi:ry="9.5459414"
           sodipodi:rx="9.5459414"
           sodipodi:cy="215.14775"
           sodipodi:cx="-199.40411"
           id="path9095"
           style="fill:url(#radialGradient9639);fill-opacity:1;stroke:none;stroke-width:1.49947155;stroke-miterlimit:4;stroke-dasharray:none;stroke-dashoffset:0;stroke-opacity:1"
           sodipodi:type="arc" />
        <path
           sodipodi:type="arc"
           style="fill:url(#radialGradient9641);fill-opacity:1;stroke:none;stroke-width:1.49947155;stroke-miterlimit:4;stroke-dasharray:none;stroke-dashoffset:0;stroke-opacity:1"
           id="path9097"
           sodipodi:cx="-199.40411"
           sodipodi:cy="215.14775"
           sodipodi:rx="9.5459414"
           sodipodi:ry="9.5459414"
           d="M -189.85817 215.14775 A 9.5459414 9.5459414 0 1 1  -208.95006,215.14775 A 9.5459414 9.5459414 0 1 1  -189.85817 215.14775 z"
           transform="matrix(-0.6404074,0,0,0.6404074,-372.40144,75.133645)" />
        <path
           transform="matrix(-0.6404074,0,0,0.6404074,-361.04245,79.42482)"
           d="M -189.85817 215.14775 A 9.5459414 9.5459414 0 1 1  -208.95006,215.14775 A 9.5459414 9.5459414 0 1 1  -189.85817 215.14775 z"
           sodipodi:ry="9.5459414"
           sodipodi:rx="9.5459414"
           sodipodi:cy="215.14775"
           sodipodi:cx="-199.40411"
           id="path9099"
           style="fill:url(#radialGradient9643);fill-opacity:1;stroke:none;stroke-width:1.49947155;stroke-miterlimit:4;stroke-dasharray:none;stroke-dashoffset:0;stroke-opacity:1"
           sodipodi:type="arc" />
        <path
           sodipodi:type="arc"
           style="fill:url(#radialGradient9645);fill-opacity:1;stroke:none;stroke-width:1.49947155;stroke-miterlimit:4;stroke-dasharray:none;stroke-dashoffset:0;stroke-opacity:1"
           id="path9101"
           sodipodi:cx="-199.40411"
           sodipodi:cy="215.14775"
           sodipodi:rx="9.5459414"
           sodipodi:ry="9.5459414"
           d="M -189.85817 215.14775 A 9.5459414 9.5459414 0 1 1  -208.95006,215.14775 A 9.5459414 9.5459414 0 1 1  -189.85817 215.14775 z"
           transform="matrix(-0.6404074,0,0,0.6404074,-349.43104,83.211151)" />
        <g
           id="g9129"
           transform="matrix(0.7139573,0,0,0.7139573,-62.998684,82.279942)">
          <path
             sodipodi:nodetypes="cccc"
             id="path9121"
             d="M -180.40843,142.44243 L -180.40843,165.77695 L -195.96477,153.75613 L -180.40843,142.44243 z "
             style="fill:#f8c523;fill-opacity:1;fill-rule:evenodd;stroke:#c99009;stroke-width:1.5;stroke-linecap:butt;stroke-linejoin:miter;stroke-miterlimit:4;stroke-dasharray:none;stroke-opacity:1"
             inkscape:transform-center-x="-8.52817" />
          <path
             inkscape:transform-center-y="-8.52817"
             style="fill:#f8c523;fill-opacity:1;fill-rule:evenodd;stroke:#c99009;stroke-width:1.5;stroke-linecap:butt;stroke-linejoin:miter;stroke-miterlimit:4;stroke-dasharray:none;stroke-opacity:1"
             d="M -207.79929,137.72061 L -184.46477,137.72061 L -196.48559,153.27695 L -207.79929,137.72061 z "
             id="path9123"
             sodipodi:nodetypes="cccc" />
          <path
             inkscape:transform-center-x="8.52817"
             style="fill:#f8c523;fill-opacity:1;fill-rule:evenodd;stroke:#c99009;stroke-width:1.5;stroke-linecap:butt;stroke-linejoin:miter;stroke-miterlimit:4;stroke-dasharray:none;stroke-opacity:1"
             d="M -211.85563,165.61147 L -211.85563,142.27695 L -196.29929,154.29777 L -211.85563,165.61147 z "
             id="path9125"
             sodipodi:nodetypes="cccc" />
          <path
             sodipodi:nodetypes="cccc"
             id="path9127"
             d="M -184.46477,170.33329 L -207.79929,170.33329 L -195.77847,154.77695 L -184.46477,170.33329 z "
             style="fill:#f8c523;fill-opacity:1;fill-rule:evenodd;stroke:#c99009;stroke-width:1.5;stroke-linecap:butt;stroke-linejoin:miter;stroke-miterlimit:4;stroke-dasharray:none;stroke-opacity:1"
             inkscape:transform-center-y="8.52817" />
        </g>
        <path
           transform="matrix(-0.3412406,0,0,0.3412406,-271.29478,119.79877)"
           d="M -189.85817 215.14775 A 9.5459414 9.5459414 0 1 1  -208.95006,215.14775 A 9.5459414 9.5459414 0 1 1  -189.85817 215.14775 z"
           sodipodi:ry="9.5459414"
           sodipodi:rx="9.5459414"
           sodipodi:cy="215.14775"
           sodipodi:cx="-199.40411"
           id="path9145"
           style="fill:url(#radialGradient9647);fill-opacity:1;stroke:none;stroke-width:1.49947155;stroke-miterlimit:4;stroke-dasharray:none;stroke-dashoffset:0;stroke-opacity:1"
           sodipodi:type="arc" />
      </g>
    </g>
  </g>
</svg>
